solid OpenSCAD_Model
  facet normal -0 0 1
    outer loop
      vertex 1 7 0.0999994
      vertex 3 5 0.0999994
      vertex 3 7 0.0999994
    endloop
  endfacet
  facet normal 0 0 1
    outer loop
      vertex 3 5 0.0999994
      vertex 1 7 0.0999994
      vertex 1 5 0.0999994
    endloop
  endfacet
  facet normal -0 0 1
    outer loop
      vertex 12 8 0
      vertex 13 5 0
      vertex 13 8 0
    endloop
  endfacet
  facet normal 0 0 1
    outer loop
      vertex 13 5 0
      vertex 12 8 0
      vertex 12 5 0
    endloop
  endfacet
  facet normal 0 0 1
    outer loop
      vertex 13 4 0
      vertex 12 4 0
      vertex 13 3 0
    endloop
  endfacet
  facet normal 0 0 1
    outer loop
      vertex 12 5 0
      vertex 11 5 0
      vertex 12 4 0
    endloop
  endfacet
  facet normal 0 0 1
    outer loop
      vertex 15 7 0
      vertex 16 8 0
      vertex 15 9 0
    endloop
  endfacet
  facet normal 0 0 1
    outer loop
      vertex 16 8 0
      vertex 15 7 0
      vertex 16 7 0
    endloop
  endfacet
  facet normal -0 0 1
    outer loop
      vertex 13 8 0
      vertex 15 7 0
      vertex 15 9 0
    endloop
  endfacet
  facet normal 0 0 1
    outer loop
      vertex 15 7 0
      vertex 13 8 0
      vertex 15 6 0
    endloop
  endfacet
  facet normal 0 0 1
    outer loop
      vertex 13 8 0
      vertex 15 9 0
      vertex 13 9 0
    endloop
  endfacet
  facet normal 0 0 1
    outer loop
      vertex 13 5 0
      vertex 15 6 0
      vertex 13 8 0
    endloop
  endfacet
  facet normal 0 0 1
    outer loop
      vertex 15 6 0
      vertex 13 5 0
      vertex 15 4 0
    endloop
  endfacet
  facet normal 0 0 1
    outer loop
      vertex 15 4 0
      vertex 13 5 0
      vertex 13 4 0
    endloop
  endfacet
  facet normal -0 0 1
    outer loop
      vertex 23 6 0
      vertex 24 3 0
      vertex 24 6 0
    endloop
  endfacet
  facet normal 0 0 1
    outer loop
      vertex 24 3 0
      vertex 23 6 0
      vertex 23 3 0
    endloop
  endfacet
  facet normal -0 0 1
    outer loop
      vertex 25 6 0
      vertex 26 3 0
      vertex 26 6 0
    endloop
  endfacet
  facet normal 0 0 1
    outer loop
      vertex 26 3 0
      vertex 25 6 0
      vertex 25 3 0
    endloop
  endfacet
  facet normal 0 0 1
    outer loop
      vertex 48 28 0
      vertex 37 5 0
      vertex 48 -2 0
    endloop
  endfacet
  facet normal 0 0 1
    outer loop
      vertex 48 28 0
      vertex 35 5 0
      vertex 37 5 0
    endloop
  endfacet
  facet normal -0 0 1
    outer loop
      vertex 26 6 0
      vertex 35 5 0
      vertex 26 8 0
    endloop
  endfacet
  facet normal 0 0 1
    outer loop
      vertex 48 28 0
      vertex 26 8 0
      vertex 35 5 0
    endloop
  endfacet
  facet normal 0 0 1
    outer loop
      vertex 48 28 0
      vertex 25 8 0
      vertex 26 8 0
    endloop
  endfacet
  facet normal -0 0 1
    outer loop
      vertex 24 7 0
      vertex 25 6 0
      vertex 25 8 0
    endloop
  endfacet
  facet normal 0 0 1
    outer loop
      vertex 25 6 0
      vertex 24 6 0
      vertex 25 3 0
    endloop
  endfacet
  facet normal 0 0 1
    outer loop
      vertex 25 6 0
      vertex 24 7 0
      vertex 24 6 0
    endloop
  endfacet
  facet normal 0 0 1
    outer loop
      vertex 25 8 0
      vertex 23 7 0
      vertex 24 7 0
    endloop
  endfacet
  facet normal -0 0 1
    outer loop
      vertex 15 10 0
      vertex 25 8 0
      vertex 48 28 0
    endloop
  endfacet
  facet normal 0 0 1
    outer loop
      vertex 23 7 0
      vertex 21 6 0
      vertex 23 6 0
    endloop
  endfacet
  facet normal 0 0 1
    outer loop
      vertex 25 8 0
      vertex 17 9 0
      vertex 23 7 0
    endloop
  endfacet
  facet normal 0 0 1
    outer loop
      vertex 19 6 0
      vertex 21 6 0
      vertex 19 7 0
    endloop
  endfacet
  facet normal -0 -0 1
    outer loop
      vertex 18 8 0
      vertex 23 7 0
      vertex 17 9 0
    endloop
  endfacet
  facet normal 0 0 1
    outer loop
      vertex 23 7 0
      vertex 19 7 0
      vertex 21 6 0
    endloop
  endfacet
  facet normal 0 -0 1
    outer loop
      vertex 19 7 0
      vertex 23 7 0
      vertex 18 8 0
    endloop
  endfacet
  facet normal 0 0 1
    outer loop
      vertex 25 8 0
      vertex 15 10 0
      vertex 17 9 0
    endloop
  endfacet
  facet normal 0 0 1
    outer loop
      vertex 15 9 0
      vertex 16 9 0
      vertex 15 10 0
    endloop
  endfacet
  facet normal 0 0 1
    outer loop
      vertex 16 9 0
      vertex 15 9 0
      vertex 16 8 0
    endloop
  endfacet
  facet normal 0 0 1
    outer loop
      vertex 17 9 0
      vertex 15 10 0
      vertex 16 9 0
    endloop
  endfacet
  facet normal -0 0 1
    outer loop
      vertex -2 28 0
      vertex 15 10 0
      vertex 48 28 0
    endloop
  endfacet
  facet normal 0 0 1
    outer loop
      vertex 13 10 0
      vertex 12 9 0
      vertex 13 9 0
    endloop
  endfacet
  facet normal 0 0 1
    outer loop
      vertex 12 9 0
      vertex 11 8 0
      vertex 12 8 0
    endloop
  endfacet
  facet normal 0 0 1
    outer loop
      vertex 3 7 0
      vertex 12 9 0
      vertex 13 10 0
    endloop
  endfacet
  facet normal 0 0 1
    outer loop
      vertex 11 8 0
      vertex 3 7 0
      vertex 11 5 0
    endloop
  endfacet
  facet normal 0 0 1
    outer loop
      vertex 12 9 0
      vertex 3 7 0
      vertex 11 8 0
    endloop
  endfacet
  facet normal 0 0 1
    outer loop
      vertex 15 10 0
      vertex -2 28 0
      vertex 13 10 0
    endloop
  endfacet
  facet normal 0 0 1
    outer loop
      vertex 13 10 0
      vertex -2 28 0
      vertex 3 7 0
    endloop
  endfacet
  facet normal 0 0 1
    outer loop
      vertex -2 -2 0
      vertex 1 7 0
      vertex -2 28 0
    endloop
  endfacet
  facet normal 0 0 1
    outer loop
      vertex 3 7 0
      vertex -2 28 0
      vertex 1 7 0
    endloop
  endfacet
  facet normal -0 0 1
    outer loop
      vertex 37 3 0
      vertex 48 -2 0
      vertex 37 5 0
    endloop
  endfacet
  facet normal -0 0 1
    outer loop
      vertex 35 3 0
      vertex 48 -2 0
      vertex 37 3 0
    endloop
  endfacet
  facet normal 0 0 1
    outer loop
      vertex 26 3 0
      vertex 35 5 0
      vertex 26 6 0
    endloop
  endfacet
  facet normal 0 0 1
    outer loop
      vertex 35 5 0
      vertex 26 3 0
      vertex 35 3 0
    endloop
  endfacet
  facet normal 0 0 1
    outer loop
      vertex 26 1 0
      vertex 35 3 0
      vertex 26 3 0
    endloop
  endfacet
  facet normal 0 0 1
    outer loop
      vertex 35 3 0
      vertex 26 1 0
      vertex 48 -2 0
    endloop
  endfacet
  facet normal -0 0 1
    outer loop
      vertex 25 1 0
      vertex 48 -2 0
      vertex 26 1 0
    endloop
  endfacet
  facet normal 0 0 1
    outer loop
      vertex 24 3 0
      vertex 25 3 0
      vertex 24 6 0
    endloop
  endfacet
  facet normal 0 0 1
    outer loop
      vertex 24 2 0
      vertex 25 3 0
      vertex 24 3 0
    endloop
  endfacet
  facet normal 0 0 1
    outer loop
      vertex 25 3 0
      vertex 24 2 0
      vertex 25 1 0
    endloop
  endfacet
  facet normal -0 0 1
    outer loop
      vertex 23 2 0
      vertex 25 1 0
      vertex 24 2 0
    endloop
  endfacet
  facet normal -0 0 1
    outer loop
      vertex 15 3 0
      vertex 23 2 0
      vertex 21 3 0
    endloop
  endfacet
  facet normal 0 0 1
    outer loop
      vertex 21 6 0
      vertex 19 6 0
      vertex 21 3 0
    endloop
  endfacet
  facet normal 0 0 1
    outer loop
      vertex 18 5 0
      vertex 19 6 0
      vertex 18 6 0
    endloop
  endfacet
  facet normal 0 0 1
    outer loop
      vertex 19 6 0
      vertex 18 5 0
      vertex 21 3 0
    endloop
  endfacet
  facet normal 0 0 1
    outer loop
      vertex 17 4 0
      vertex 18 5 0
      vertex 17 5 0
    endloop
  endfacet
  facet normal 0 0 1
    outer loop
      vertex 18 5 0
      vertex 17 4 0
      vertex 21 3 0
    endloop
  endfacet
  facet normal 0 0 1
    outer loop
      vertex 15 3 0
      vertex 21 3 0
      vertex 17 4 0
    endloop
  endfacet
  facet normal 0 0 1
    outer loop
      vertex 15 3 0
      vertex 17 4 0
      vertex 16 4 0
    endloop
  endfacet
  facet normal 0 0 1
    outer loop
      vertex 16 5 0
      vertex 15 4 0
      vertex 16 4 0
    endloop
  endfacet
  facet normal 0 0 1
    outer loop
      vertex 15 3 0
      vertex 16 4 0
      vertex 15 4 0
    endloop
  endfacet
  facet normal 0 0 1
    outer loop
      vertex 23 2 0
      vertex 15 3 0
      vertex 25 1 0
    endloop
  endfacet
  facet normal 0 0 1
    outer loop
      vertex -2 -2 0
      vertex 15 3 0
      vertex 13 3 0
    endloop
  endfacet
  facet normal -0 0 1
    outer loop
      vertex 3 5 0
      vertex 12 4 0
      vertex 11 5 0
    endloop
  endfacet
  facet normal 0 0 1
    outer loop
      vertex 3 5 0
      vertex 11 5 0
      vertex 3 7 0
    endloop
  endfacet
  facet normal 0 0 1
    outer loop
      vertex 12 4 0
      vertex 3 5 0
      vertex 13 3 0
    endloop
  endfacet
  facet normal 0 0 1
    outer loop
      vertex -2 -2 0
      vertex 3 5 0
      vertex 1 5 0
    endloop
  endfacet
  facet normal 0 0 1
    outer loop
      vertex 3 5 0
      vertex -2 -2 0
      vertex 13 3 0
    endloop
  endfacet
  facet normal 0 0 1
    outer loop
      vertex 25 1 0
      vertex -2 -2 0
      vertex 48 -2 0
    endloop
  endfacet
  facet normal 0 0 1
    outer loop
      vertex 15 3 0
      vertex -2 -2 0
      vertex 25 1 0
    endloop
  endfacet
  facet normal 0 0 1
    outer loop
      vertex 1 7 0
      vertex -2 -2 0
      vertex 1 5 0
    endloop
  endfacet
  facet normal 0 0 1
    outer loop
      vertex 23 3 0
      vertex 21 3 0
      vertex 23 2 0
    endloop
  endfacet
  facet normal 0 0 1
    outer loop
      vertex 19 7 0
      vertex 18 8 0
      vertex 18 7 0
    endloop
  endfacet
  facet normal 0 0 1
    outer loop
      vertex 18 8 0
      vertex 17 9 0
      vertex 17 8 0
    endloop
  endfacet
  facet normal 0 0 1
    outer loop
      vertex 16 7 0
      vertex 17 8 0
      vertex 16 8 0
    endloop
  endfacet
  facet normal 0 0 1
    outer loop
      vertex 17 8 0
      vertex 16 7 0
      vertex 17 5 0
    endloop
  endfacet
  facet normal -0 0 1
    outer loop
      vertex 16 6 0
      vertex 17 5 0
      vertex 16 7 0
    endloop
  endfacet
  facet normal 0 0 1
    outer loop
      vertex 16 6 0
      vertex 16 5 0
      vertex 17 5 0
    endloop
  endfacet
  facet normal -0 0 1
    outer loop
      vertex 15 6 0
      vertex 16 5 0
      vertex 16 6 0
    endloop
  endfacet
  facet normal 0 0 1
    outer loop
      vertex 15 4 0
      vertex 16 5 0
      vertex 15 6 0
    endloop
  endfacet
  facet normal -1 0 0
    outer loop
      vertex 1 5 0
      vertex 1 7 0.0999994
      vertex 1 7 0
    endloop
  endfacet
  facet normal -1 -0 0
    outer loop
      vertex 1 7 0.0999994
      vertex 1 5 0
      vertex 1 5 0.0999994
    endloop
  endfacet
  facet normal 0 -1 0
    outer loop
      vertex 1 5 0
      vertex 3 5 0.0999994
      vertex 1 5 0.0999994
    endloop
  endfacet
  facet normal 0 -1 -0
    outer loop
      vertex 3 5 0.0999994
      vertex 1 5 0
      vertex 3 5 0
    endloop
  endfacet
  facet normal 0 1 -0
    outer loop
      vertex 3 7 0
      vertex 1 7 0.0999994
      vertex 3 7 0.0999994
    endloop
  endfacet
  facet normal 0 1 0
    outer loop
      vertex 1 7 0.0999994
      vertex 3 7 0
      vertex 1 7 0
    endloop
  endfacet
  facet normal 1 -0 0
    outer loop
      vertex 3 5 0.0999994
      vertex 3 7 0
      vertex 3 7 0.0999994
    endloop
  endfacet
  facet normal 1 0 0
    outer loop
      vertex 3 7 0
      vertex 3 5 0.0999994
      vertex 3 5 0
    endloop
  endfacet
  facet normal 1 -0 0
    outer loop
      vertex 12 5 0.0999994
      vertex 12 8 0
      vertex 12 8 0.0999994
    endloop
  endfacet
  facet normal 1 0 0
    outer loop
      vertex 12 8 0
      vertex 12 5 0.0999994
      vertex 12 5 0
    endloop
  endfacet
  facet normal -0 0 1
    outer loop
      vertex 11 8 0.0999994
      vertex 12 5 0.0999994
      vertex 12 8 0.0999994
    endloop
  endfacet
  facet normal 0 0 1
    outer loop
      vertex 12 5 0.0999994
      vertex 11 8 0.0999994
      vertex 11 5 0.0999994
    endloop
  endfacet
  facet normal -1 0 0
    outer loop
      vertex 11 5 0
      vertex 11 8 0.0999994
      vertex 11 8 0
    endloop
  endfacet
  facet normal -1 -0 0
    outer loop
      vertex 11 8 0.0999994
      vertex 11 5 0
      vertex 11 5 0.0999994
    endloop
  endfacet
  facet normal 0 -1 0
    outer loop
      vertex 11 5 0
      vertex 12 5 0.0999994
      vertex 11 5 0.0999994
    endloop
  endfacet
  facet normal 0 -1 -0
    outer loop
      vertex 12 5 0.0999994
      vertex 11 5 0
      vertex 12 5 0
    endloop
  endfacet
  facet normal 0 1 -0
    outer loop
      vertex 12 8 0
      vertex 11 8 0.0999994
      vertex 12 8 0.0999994
    endloop
  endfacet
  facet normal 0 1 0
    outer loop
      vertex 11 8 0.0999994
      vertex 12 8 0
      vertex 11 8 0
    endloop
  endfacet
  facet normal 1 -0 0
    outer loop
      vertex 13 4 0.0999994
      vertex 13 5 0
      vertex 13 5 0.0999994
    endloop
  endfacet
  facet normal 1 0 0
    outer loop
      vertex 13 5 0
      vertex 13 4 0.0999994
      vertex 13 4 0
    endloop
  endfacet
  facet normal -0 0 1
    outer loop
      vertex 12 5 0.0999994
      vertex 13 4 0.0999994
      vertex 13 5 0.0999994
    endloop
  endfacet
  facet normal 0 0 1
    outer loop
      vertex 13 4 0.0999994
      vertex 12 5 0.0999994
      vertex 12 4 0.0999994
    endloop
  endfacet
  facet normal -1 0 0
    outer loop
      vertex 12 4 0
      vertex 12 5 0.0999994
      vertex 12 5 0
    endloop
  endfacet
  facet normal -1 -0 0
    outer loop
      vertex 12 5 0.0999994
      vertex 12 4 0
      vertex 12 4 0.0999994
    endloop
  endfacet
  facet normal 0 1 -0
    outer loop
      vertex 13 5 0
      vertex 12 5 0.0999994
      vertex 13 5 0.0999994
    endloop
  endfacet
  facet normal 0 1 0
    outer loop
      vertex 12 5 0.0999994
      vertex 13 5 0
      vertex 12 5 0
    endloop
  endfacet
  facet normal 0 -1 0
    outer loop
      vertex 12 4 0
      vertex 13 4 0.0999994
      vertex 12 4 0.0999994
    endloop
  endfacet
  facet normal 0 -1 -0
    outer loop
      vertex 13 4 0.0999994
      vertex 12 4 0
      vertex 13 4 0
    endloop
  endfacet
  facet normal 1 -0 0
    outer loop
      vertex 13 8 0.0999994
      vertex 13 9 0
      vertex 13 9 0.0999994
    endloop
  endfacet
  facet normal 1 0 0
    outer loop
      vertex 13 9 0
      vertex 13 8 0.0999994
      vertex 13 8 0
    endloop
  endfacet
  facet normal -0 0 1
    outer loop
      vertex 12 9 0.0999994
      vertex 13 8 0.0999994
      vertex 13 9 0.0999994
    endloop
  endfacet
  facet normal 0 0 1
    outer loop
      vertex 13 8 0.0999994
      vertex 12 9 0.0999994
      vertex 12 8 0.0999994
    endloop
  endfacet
  facet normal -1 0 0
    outer loop
      vertex 12 8 0
      vertex 12 9 0.0999994
      vertex 12 9 0
    endloop
  endfacet
  facet normal -1 -0 0
    outer loop
      vertex 12 9 0.0999994
      vertex 12 8 0
      vertex 12 8 0.0999994
    endloop
  endfacet
  facet normal 0 1 -0
    outer loop
      vertex 13 9 0
      vertex 12 9 0.0999994
      vertex 13 9 0.0999994
    endloop
  endfacet
  facet normal 0 1 0
    outer loop
      vertex 12 9 0.0999994
      vertex 13 9 0
      vertex 12 9 0
    endloop
  endfacet
  facet normal 0 -1 0
    outer loop
      vertex 12 8 0
      vertex 13 8 0.0999994
      vertex 12 8 0.0999994
    endloop
  endfacet
  facet normal 0 -1 -0
    outer loop
      vertex 13 8 0.0999994
      vertex 12 8 0
      vertex 13 8 0
    endloop
  endfacet
  facet normal -0 0 1
    outer loop
      vertex 13 4 0.0999994
      vertex 15 3 0.0999994
      vertex 15 4 0.0999994
    endloop
  endfacet
  facet normal 0 0 1
    outer loop
      vertex 15 3 0.0999994
      vertex 13 4 0.0999994
      vertex 13 3 0.0999994
    endloop
  endfacet
  facet normal -1 0 0
    outer loop
      vertex 13 3 0
      vertex 13 4 0.0999994
      vertex 13 4 0
    endloop
  endfacet
  facet normal -1 -0 0
    outer loop
      vertex 13 4 0.0999994
      vertex 13 3 0
      vertex 13 3 0.0999994
    endloop
  endfacet
  facet normal 0 1 -0
    outer loop
      vertex 15 4 0
      vertex 13 4 0.0999994
      vertex 15 4 0.0999994
    endloop
  endfacet
  facet normal 0 1 0
    outer loop
      vertex 13 4 0.0999994
      vertex 15 4 0
      vertex 13 4 0
    endloop
  endfacet
  facet normal 0 -1 0
    outer loop
      vertex 13 3 0
      vertex 15 3 0.0999994
      vertex 13 3 0.0999994
    endloop
  endfacet
  facet normal 0 -1 -0
    outer loop
      vertex 15 3 0.0999994
      vertex 13 3 0
      vertex 15 3 0
    endloop
  endfacet
  facet normal -0 0 1
    outer loop
      vertex 13 10 0.0999994
      vertex 15 9 0.0999994
      vertex 15 10 0.0999994
    endloop
  endfacet
  facet normal 0 0 1
    outer loop
      vertex 15 9 0.0999994
      vertex 13 10 0.0999994
      vertex 13 9 0.0999994
    endloop
  endfacet
  facet normal -1 0 0
    outer loop
      vertex 13 9 0
      vertex 13 10 0.0999994
      vertex 13 10 0
    endloop
  endfacet
  facet normal -1 -0 0
    outer loop
      vertex 13 10 0.0999994
      vertex 13 9 0
      vertex 13 9 0.0999994
    endloop
  endfacet
  facet normal 0 1 -0
    outer loop
      vertex 15 10 0
      vertex 13 10 0.0999994
      vertex 15 10 0.0999994
    endloop
  endfacet
  facet normal 0 1 0
    outer loop
      vertex 13 10 0.0999994
      vertex 15 10 0
      vertex 13 10 0
    endloop
  endfacet
  facet normal 0 -1 0
    outer loop
      vertex 13 9 0
      vertex 15 9 0.0999994
      vertex 13 9 0.0999994
    endloop
  endfacet
  facet normal 0 -1 -0
    outer loop
      vertex 15 9 0.0999994
      vertex 13 9 0
      vertex 15 9 0
    endloop
  endfacet
  facet normal 1 -0 0
    outer loop
      vertex 15 3 0.0999994
      vertex 15 4 0
      vertex 15 4 0.0999994
    endloop
  endfacet
  facet normal 1 0 0
    outer loop
      vertex 15 4 0
      vertex 15 3 0.0999994
      vertex 15 3 0
    endloop
  endfacet
  facet normal 1 -0 0
    outer loop
      vertex 15 9 0.0999994
      vertex 15 10 0
      vertex 15 10 0.0999994
    endloop
  endfacet
  facet normal 1 0 0
    outer loop
      vertex 15 10 0
      vertex 15 9 0.0999994
      vertex 15 9 0
    endloop
  endfacet
  facet normal 1 -0 0
    outer loop
      vertex 16 6 0.0999994
      vertex 16 7 0
      vertex 16 7 0.0999994
    endloop
  endfacet
  facet normal 1 0 0
    outer loop
      vertex 16 7 0
      vertex 16 6 0.0999994
      vertex 16 6 0
    endloop
  endfacet
  facet normal -0 0 1
    outer loop
      vertex 15 7 0.0999994
      vertex 16 6 0.0999994
      vertex 16 7 0.0999994
    endloop
  endfacet
  facet normal 0 0 1
    outer loop
      vertex 16 6 0.0999994
      vertex 15 7 0.0999994
      vertex 15 6 0.0999994
    endloop
  endfacet
  facet normal -1 0 0
    outer loop
      vertex 15 6 0
      vertex 15 7 0.0999994
      vertex 15 7 0
    endloop
  endfacet
  facet normal -1 -0 0
    outer loop
      vertex 15 7 0.0999994
      vertex 15 6 0
      vertex 15 6 0.0999994
    endloop
  endfacet
  facet normal 0 1 -0
    outer loop
      vertex 16 7 0
      vertex 15 7 0.0999994
      vertex 16 7 0.0999994
    endloop
  endfacet
  facet normal 0 1 0
    outer loop
      vertex 15 7 0.0999994
      vertex 16 7 0
      vertex 15 7 0
    endloop
  endfacet
  facet normal 0 -1 0
    outer loop
      vertex 15 6 0
      vertex 16 6 0.0999994
      vertex 15 6 0.0999994
    endloop
  endfacet
  facet normal 0 -1 -0
    outer loop
      vertex 16 6 0.0999994
      vertex 15 6 0
      vertex 16 6 0
    endloop
  endfacet
  facet normal 1 -0 0
    outer loop
      vertex 17 4 0.0999994
      vertex 17 5 0
      vertex 17 5 0.0999994
    endloop
  endfacet
  facet normal 1 0 0
    outer loop
      vertex 17 5 0
      vertex 17 4 0.0999994
      vertex 17 4 0
    endloop
  endfacet
  facet normal -0 0 1
    outer loop
      vertex 16 5 0.0999994
      vertex 17 4 0.0999994
      vertex 17 5 0.0999994
    endloop
  endfacet
  facet normal 0 0 1
    outer loop
      vertex 17 4 0.0999994
      vertex 16 5 0.0999994
      vertex 16 4 0.0999994
    endloop
  endfacet
  facet normal -1 0 0
    outer loop
      vertex 16 4 0
      vertex 16 5 0.0999994
      vertex 16 5 0
    endloop
  endfacet
  facet normal -1 -0 0
    outer loop
      vertex 16 5 0.0999994
      vertex 16 4 0
      vertex 16 4 0.0999994
    endloop
  endfacet
  facet normal 0 1 -0
    outer loop
      vertex 17 5 0
      vertex 16 5 0.0999994
      vertex 17 5 0.0999994
    endloop
  endfacet
  facet normal 0 1 0
    outer loop
      vertex 16 5 0.0999994
      vertex 17 5 0
      vertex 16 5 0
    endloop
  endfacet
  facet normal 0 -1 0
    outer loop
      vertex 16 4 0
      vertex 17 4 0.0999994
      vertex 16 4 0.0999994
    endloop
  endfacet
  facet normal 0 -1 -0
    outer loop
      vertex 17 4 0.0999994
      vertex 16 4 0
      vertex 17 4 0
    endloop
  endfacet
  facet normal 1 -0 0
    outer loop
      vertex 17 8 0.0999994
      vertex 17 9 0
      vertex 17 9 0.0999994
    endloop
  endfacet
  facet normal 1 0 0
    outer loop
      vertex 17 9 0
      vertex 17 8 0.0999994
      vertex 17 8 0
    endloop
  endfacet
  facet normal -0 0 1
    outer loop
      vertex 16 9 0.0999994
      vertex 17 8 0.0999994
      vertex 17 9 0.0999994
    endloop
  endfacet
  facet normal 0 0 1
    outer loop
      vertex 17 8 0.0999994
      vertex 16 9 0.0999994
      vertex 16 8 0.0999994
    endloop
  endfacet
  facet normal -1 0 0
    outer loop
      vertex 16 8 0
      vertex 16 9 0.0999994
      vertex 16 9 0
    endloop
  endfacet
  facet normal -1 -0 0
    outer loop
      vertex 16 9 0.0999994
      vertex 16 8 0
      vertex 16 8 0.0999994
    endloop
  endfacet
  facet normal 0 1 -0
    outer loop
      vertex 17 9 0
      vertex 16 9 0.0999994
      vertex 17 9 0.0999994
    endloop
  endfacet
  facet normal 0 1 0
    outer loop
      vertex 16 9 0.0999994
      vertex 17 9 0
      vertex 16 9 0
    endloop
  endfacet
  facet normal 0 -1 0
    outer loop
      vertex 16 8 0
      vertex 17 8 0.0999994
      vertex 16 8 0.0999994
    endloop
  endfacet
  facet normal 0 -1 -0
    outer loop
      vertex 17 8 0.0999994
      vertex 16 8 0
      vertex 17 8 0
    endloop
  endfacet
  facet normal 1 -0 0
    outer loop
      vertex 18 5 0.0999994
      vertex 18 6 0
      vertex 18 6 0.0999994
    endloop
  endfacet
  facet normal 1 0 0
    outer loop
      vertex 18 6 0
      vertex 18 5 0.0999994
      vertex 18 5 0
    endloop
  endfacet
  facet normal -0 0 1
    outer loop
      vertex 17 8 0.0999994
      vertex 18 7 0.0999994
      vertex 18 8 0.0999994
    endloop
  endfacet
  facet normal 0 0 1
    outer loop
      vertex 18 7 0.0999994
      vertex 17 8 0.0999994
      vertex 18 6 0.0999994
    endloop
  endfacet
  facet normal 0 0 1
    outer loop
      vertex 17 5 0.0999994
      vertex 18 6 0.0999994
      vertex 17 8 0.0999994
    endloop
  endfacet
  facet normal 0 0 1
    outer loop
      vertex 18 6 0.0999994
      vertex 17 5 0.0999994
      vertex 18 5 0.0999994
    endloop
  endfacet
  facet normal -0 0 1
    outer loop
      vertex 18 7 0.0999994
      vertex 19 6 0.0999994
      vertex 19 7 0.0999994
    endloop
  endfacet
  facet normal 0 0 1
    outer loop
      vertex 19 6 0.0999994
      vertex 18 7 0.0999994
      vertex 18 6 0.0999994
    endloop
  endfacet
  facet normal -1 0 0
    outer loop
      vertex 17 5 0
      vertex 17 8 0.0999994
      vertex 17 8 0
    endloop
  endfacet
  facet normal -1 -0 0
    outer loop
      vertex 17 8 0.0999994
      vertex 17 5 0
      vertex 17 5 0.0999994
    endloop
  endfacet
  facet normal 0 -1 0
    outer loop
      vertex 18 6 0
      vertex 19 6 0.0999994
      vertex 18 6 0.0999994
    endloop
  endfacet
  facet normal 0 -1 -0
    outer loop
      vertex 19 6 0.0999994
      vertex 18 6 0
      vertex 19 6 0
    endloop
  endfacet
  facet normal 0 -1 0
    outer loop
      vertex 17 5 0
      vertex 18 5 0.0999994
      vertex 17 5 0.0999994
    endloop
  endfacet
  facet normal 0 -1 -0
    outer loop
      vertex 18 5 0.0999994
      vertex 17 5 0
      vertex 18 5 0
    endloop
  endfacet
  facet normal 0 1 -0
    outer loop
      vertex 19 7 0
      vertex 18 7 0.0999994
      vertex 19 7 0.0999994
    endloop
  endfacet
  facet normal 0 1 0
    outer loop
      vertex 18 7 0.0999994
      vertex 19 7 0
      vertex 18 7 0
    endloop
  endfacet
  facet normal 1 -0 0
    outer loop
      vertex 18 7 0.0999994
      vertex 18 8 0
      vertex 18 8 0.0999994
    endloop
  endfacet
  facet normal 1 0 0
    outer loop
      vertex 18 8 0
      vertex 18 7 0.0999994
      vertex 18 7 0
    endloop
  endfacet
  facet normal 0 1 -0
    outer loop
      vertex 18 8 0
      vertex 17 8 0.0999994
      vertex 18 8 0.0999994
    endloop
  endfacet
  facet normal 0 1 0
    outer loop
      vertex 17 8 0.0999994
      vertex 18 8 0
      vertex 17 8 0
    endloop
  endfacet
  facet normal 1 -0 0
    outer loop
      vertex 19 6 0.0999994
      vertex 19 7 0
      vertex 19 7 0.0999994
    endloop
  endfacet
  facet normal 1 0 0
    outer loop
      vertex 19 7 0
      vertex 19 6 0.0999994
      vertex 19 6 0
    endloop
  endfacet
  facet normal -0 0 1
    outer loop
      vertex 21 6 0.0999994
      vertex 23 3 0.0999994
      vertex 23 6 0.0999994
    endloop
  endfacet
  facet normal 0 0 1
    outer loop
      vertex 23 3 0.0999994
      vertex 21 6 0.0999994
      vertex 21 3 0.0999994
    endloop
  endfacet
  facet normal -1 0 0
    outer loop
      vertex 21 3 0
      vertex 21 6 0.0999994
      vertex 21 6 0
    endloop
  endfacet
  facet normal -1 -0 0
    outer loop
      vertex 21 6 0.0999994
      vertex 21 3 0
      vertex 21 3 0.0999994
    endloop
  endfacet
  facet normal 0 -1 0
    outer loop
      vertex 21 3 0
      vertex 23 3 0.0999994
      vertex 21 3 0.0999994
    endloop
  endfacet
  facet normal 0 -1 -0
    outer loop
      vertex 23 3 0.0999994
      vertex 21 3 0
      vertex 23 3 0
    endloop
  endfacet
  facet normal 0 1 -0
    outer loop
      vertex 23 6 0
      vertex 21 6 0.0999994
      vertex 23 6 0.0999994
    endloop
  endfacet
  facet normal 0 1 0
    outer loop
      vertex 21 6 0.0999994
      vertex 23 6 0
      vertex 21 6 0
    endloop
  endfacet
  facet normal 1 -0 0
    outer loop
      vertex 23 3 0.0999994
      vertex 23 6 0
      vertex 23 6 0.0999994
    endloop
  endfacet
  facet normal 1 0 0
    outer loop
      vertex 23 6 0
      vertex 23 3 0.0999994
      vertex 23 3 0
    endloop
  endfacet
  facet normal 1 -0 0
    outer loop
      vertex 24 2 0.0999994
      vertex 24 3 0
      vertex 24 3 0.0999994
    endloop
  endfacet
  facet normal 1 0 0
    outer loop
      vertex 24 3 0
      vertex 24 2 0.0999994
      vertex 24 2 0
    endloop
  endfacet
  facet normal -0 0 1
    outer loop
      vertex 23 3 0.0999994
      vertex 24 2 0.0999994
      vertex 24 3 0.0999994
    endloop
  endfacet
  facet normal 0 0 1
    outer loop
      vertex 24 2 0.0999994
      vertex 23 3 0.0999994
      vertex 23 2 0.0999994
    endloop
  endfacet
  facet normal -1 0 0
    outer loop
      vertex 23 2 0
      vertex 23 3 0.0999994
      vertex 23 3 0
    endloop
  endfacet
  facet normal -1 -0 0
    outer loop
      vertex 23 3 0.0999994
      vertex 23 2 0
      vertex 23 2 0.0999994
    endloop
  endfacet
  facet normal 0 1 -0
    outer loop
      vertex 24 3 0
      vertex 23 3 0.0999994
      vertex 24 3 0.0999994
    endloop
  endfacet
  facet normal 0 1 0
    outer loop
      vertex 23 3 0.0999994
      vertex 24 3 0
      vertex 23 3 0
    endloop
  endfacet
  facet normal 0 -1 0
    outer loop
      vertex 23 2 0
      vertex 24 2 0.0999994
      vertex 23 2 0.0999994
    endloop
  endfacet
  facet normal 0 -1 -0
    outer loop
      vertex 24 2 0.0999994
      vertex 23 2 0
      vertex 24 2 0
    endloop
  endfacet
  facet normal 1 -0 0
    outer loop
      vertex 24 6 0.0999994
      vertex 24 7 0
      vertex 24 7 0.0999994
    endloop
  endfacet
  facet normal 1 0 0
    outer loop
      vertex 24 7 0
      vertex 24 6 0.0999994
      vertex 24 6 0
    endloop
  endfacet
  facet normal -0 0 1
    outer loop
      vertex 23 7 0.0999994
      vertex 24 6 0.0999994
      vertex 24 7 0.0999994
    endloop
  endfacet
  facet normal 0 0 1
    outer loop
      vertex 24 6 0.0999994
      vertex 23 7 0.0999994
      vertex 23 6 0.0999994
    endloop
  endfacet
  facet normal -1 0 0
    outer loop
      vertex 23 6 0
      vertex 23 7 0.0999994
      vertex 23 7 0
    endloop
  endfacet
  facet normal -1 -0 0
    outer loop
      vertex 23 7 0.0999994
      vertex 23 6 0
      vertex 23 6 0.0999994
    endloop
  endfacet
  facet normal 0 1 -0
    outer loop
      vertex 24 7 0
      vertex 23 7 0.0999994
      vertex 24 7 0.0999994
    endloop
  endfacet
  facet normal 0 1 0
    outer loop
      vertex 23 7 0.0999994
      vertex 24 7 0
      vertex 23 7 0
    endloop
  endfacet
  facet normal 0 -1 0
    outer loop
      vertex 23 6 0
      vertex 24 6 0.0999994
      vertex 23 6 0.0999994
    endloop
  endfacet
  facet normal 0 -1 -0
    outer loop
      vertex 24 6 0.0999994
      vertex 23 6 0
      vertex 24 6 0
    endloop
  endfacet
  facet normal 1 -0 0
    outer loop
      vertex 26 1 0.0999994
      vertex 26 3 0
      vertex 26 3 0.0999994
    endloop
  endfacet
  facet normal 1 0 0
    outer loop
      vertex 26 3 0
      vertex 26 1 0.0999994
      vertex 26 1 0
    endloop
  endfacet
  facet normal -0 0 1
    outer loop
      vertex 25 3 0.0999994
      vertex 26 1 0.0999994
      vertex 26 3 0.0999994
    endloop
  endfacet
  facet normal 0 0 1
    outer loop
      vertex 26 1 0.0999994
      vertex 25 3 0.0999994
      vertex 25 1 0.0999994
    endloop
  endfacet
  facet normal -1 0 0
    outer loop
      vertex 25 1 0
      vertex 25 3 0.0999994
      vertex 25 3 0
    endloop
  endfacet
  facet normal -1 -0 0
    outer loop
      vertex 25 3 0.0999994
      vertex 25 1 0
      vertex 25 1 0.0999994
    endloop
  endfacet
  facet normal 0 -1 0
    outer loop
      vertex 25 1 0
      vertex 26 1 0.0999994
      vertex 25 1 0.0999994
    endloop
  endfacet
  facet normal 0 -1 -0
    outer loop
      vertex 26 1 0.0999994
      vertex 25 1 0
      vertex 26 1 0
    endloop
  endfacet
  facet normal 0 1 -0
    outer loop
      vertex 26 3 0
      vertex 25 3 0.0999994
      vertex 26 3 0.0999994
    endloop
  endfacet
  facet normal 0 1 0
    outer loop
      vertex 25 3 0.0999994
      vertex 26 3 0
      vertex 25 3 0
    endloop
  endfacet
  facet normal 1 -0 0
    outer loop
      vertex 26 6 0.0999994
      vertex 26 8 0
      vertex 26 8 0.0999994
    endloop
  endfacet
  facet normal 1 0 0
    outer loop
      vertex 26 8 0
      vertex 26 6 0.0999994
      vertex 26 6 0
    endloop
  endfacet
  facet normal -0 0 1
    outer loop
      vertex 25 8 0.0999994
      vertex 26 6 0.0999994
      vertex 26 8 0.0999994
    endloop
  endfacet
  facet normal 0 0 1
    outer loop
      vertex 26 6 0.0999994
      vertex 25 8 0.0999994
      vertex 25 6 0.0999994
    endloop
  endfacet
  facet normal -1 0 0
    outer loop
      vertex 25 6 0
      vertex 25 8 0.0999994
      vertex 25 8 0
    endloop
  endfacet
  facet normal -1 -0 0
    outer loop
      vertex 25 8 0.0999994
      vertex 25 6 0
      vertex 25 6 0.0999994
    endloop
  endfacet
  facet normal 0 -1 0
    outer loop
      vertex 25 6 0
      vertex 26 6 0.0999994
      vertex 25 6 0.0999994
    endloop
  endfacet
  facet normal 0 -1 -0
    outer loop
      vertex 26 6 0.0999994
      vertex 25 6 0
      vertex 26 6 0
    endloop
  endfacet
  facet normal 0 1 -0
    outer loop
      vertex 26 8 0
      vertex 25 8 0.0999994
      vertex 26 8 0.0999994
    endloop
  endfacet
  facet normal 0 1 0
    outer loop
      vertex 25 8 0.0999994
      vertex 26 8 0
      vertex 25 8 0
    endloop
  endfacet
  facet normal -0 0 1
    outer loop
      vertex 35 5 0.0999994
      vertex 37 3 0.0999994
      vertex 37 5 0.0999994
    endloop
  endfacet
  facet normal 0 0 1
    outer loop
      vertex 37 3 0.0999994
      vertex 35 5 0.0999994
      vertex 35 3 0.0999994
    endloop
  endfacet
  facet normal -1 0 0
    outer loop
      vertex 35 3 0
      vertex 35 5 0.0999994
      vertex 35 5 0
    endloop
  endfacet
  facet normal -1 -0 0
    outer loop
      vertex 35 5 0.0999994
      vertex 35 3 0
      vertex 35 3 0.0999994
    endloop
  endfacet
  facet normal 0 -1 0
    outer loop
      vertex 35 3 0
      vertex 37 3 0.0999994
      vertex 35 3 0.0999994
    endloop
  endfacet
  facet normal 0 -1 -0
    outer loop
      vertex 37 3 0.0999994
      vertex 35 3 0
      vertex 37 3 0
    endloop
  endfacet
  facet normal 0 1 -0
    outer loop
      vertex 37 5 0
      vertex 35 5 0.0999994
      vertex 37 5 0.0999994
    endloop
  endfacet
  facet normal 0 1 0
    outer loop
      vertex 35 5 0.0999994
      vertex 37 5 0
      vertex 35 5 0
    endloop
  endfacet
  facet normal 1 -0 0
    outer loop
      vertex 37 3 0.0999994
      vertex 37 5 0
      vertex 37 5 0.0999994
    endloop
  endfacet
  facet normal 1 0 0
    outer loop
      vertex 37 5 0
      vertex 37 3 0.0999994
      vertex 37 3 0
    endloop
  endfacet
  facet normal 1 -0 0
    outer loop
      vertex 48 -2 0
      vertex 48 28 -2
      vertex 48 28 0
    endloop
  endfacet
  facet normal 1 0 0
    outer loop
      vertex 48 28 -2
      vertex 48 -2 0
      vertex 48 -2 -2
    endloop
  endfacet
  facet normal 0 0 -1
    outer loop
      vertex -2 -2 -2
      vertex 48 28 -2
      vertex 48 -2 -2
    endloop
  endfacet
  facet normal -0 0 -1
    outer loop
      vertex 48 28 -2
      vertex -2 -2 -2
      vertex -2 28 -2
    endloop
  endfacet
  facet normal -1 0 0
    outer loop
      vertex -2 -2 -2
      vertex -2 28 0
      vertex -2 28 -2
    endloop
  endfacet
  facet normal -1 -0 0
    outer loop
      vertex -2 28 0
      vertex -2 -2 -2
      vertex -2 -2 0
    endloop
  endfacet
  facet normal 0 1 -0
    outer loop
      vertex 48 28 -2
      vertex -2 28 0
      vertex 48 28 0
    endloop
  endfacet
  facet normal 0 1 0
    outer loop
      vertex -2 28 0
      vertex 48 28 -2
      vertex -2 28 -2
    endloop
  endfacet
  facet normal 0 -1 0
    outer loop
      vertex -2 -2 -2
      vertex 48 -2 0
      vertex -2 -2 0
    endloop
  endfacet
  facet normal 0 -1 -0
    outer loop
      vertex 48 -2 0
      vertex -2 -2 -2
      vertex 48 -2 -2
    endloop
  endfacet
endsolid OpenSCAD_Model
