<?xml version="1.0" encoding="utf-8"?>
<svg version="1.1" id="cloud" xmlns="http://www.w3.org/2000/svg" xmlns:xlink="http://www.w3.org/1999/xlink" x="0px" y="0px"
	 width="512px" height="512px" viewBox="0 0 512 512" xml:space="preserve">
<path d="M512,200.8c0-41-28.3-75.5-66.5-84.7C443.9,51.7,391.3,0,326.6,0c-37.9,0-71.6,17.7-93.4,45.4c-12.2-15.8-31.3-26-52.9-26
c-36.9,0-66.8,29.9-66.8,66.9c0,3.2,0.2,6.4,0.7,9.5c-5.6-1-11.4-1.6-17.3-1.6C43.4,94.2,0,137.5,0,191.1C0,244.6,43.4,288,96.9,288
h328.1v-0.1C473.1,287.9,512,248.9,512,200.8z"/>
</svg>
